<svg xmlns="http://www.w3.org/2000/svg" width="100" height="25" viewBox="0 0 100 25" fill="none">
<g clip-path="url(#clip0_2_4)">
<rect x="31" width="68" height="25" fill="white"/>
<rect width="31" height="25" fill="#0021F4"/>
<path d="M34.736 15V9.16H36.248C36.6267 9.16 36.952 9.232 37.224 9.376C37.5013 9.52 37.7147 9.72267 37.864 9.984C38.0187 10.2453 38.096 10.5547 38.096 10.912V13.24C38.096 13.5973 38.0187 13.9093 37.864 14.176C37.7147 14.4373 37.5013 14.64 37.224 14.784C36.952 14.928 36.6267 15 36.248 15H34.736ZM35.456 14.36H36.248C36.6 14.36 36.8747 14.2613 37.072 14.064C37.2747 13.8667 37.376 13.592 37.376 13.24V10.912C37.376 10.5653 37.2747 10.2933 37.072 10.096C36.8747 9.89867 36.6 9.8 36.248 9.8H35.456V14.36ZM41.1969 15.064C40.8449 15.064 40.5409 14.9973 40.2849 14.864C40.0289 14.7307 39.8289 14.5387 39.6849 14.288C39.5462 14.032 39.4769 13.7307 39.4769 13.384V12.216C39.4769 11.864 39.5462 11.5627 39.6849 11.312C39.8289 11.0613 40.0289 10.8693 40.2849 10.736C40.5409 10.6027 40.8449 10.536 41.1969 10.536C41.5489 10.536 41.8529 10.6027 42.1089 10.736C42.3649 10.8693 42.5622 11.0613 42.7009 11.312C42.8449 11.5627 42.9169 11.8613 42.9169 12.208V13.384C42.9169 13.7307 42.8449 14.032 42.7009 14.288C42.5622 14.5387 42.3649 14.7307 42.1089 14.864C41.8529 14.9973 41.5489 15.064 41.1969 15.064ZM41.1969 14.424C41.5115 14.424 41.7569 14.336 41.9329 14.16C42.1089 13.984 42.1969 13.7253 42.1969 13.384V12.216C42.1969 11.8747 42.1089 11.616 41.9329 11.44C41.7569 11.264 41.5115 11.176 41.1969 11.176C40.8875 11.176 40.6422 11.264 40.4609 11.44C40.2849 11.616 40.1969 11.8747 40.1969 12.216V13.384C40.1969 13.7253 40.2849 13.984 40.4609 14.16C40.6422 14.336 40.8875 14.424 41.1969 14.424ZM46.0258 15.08C45.6738 15.08 45.3644 15.0133 45.0978 14.88C44.8364 14.7467 44.6338 14.5547 44.4898 14.304C44.3458 14.048 44.2738 13.7467 44.2738 13.4V12.2C44.2738 11.848 44.3458 11.5467 44.4898 11.296C44.6338 11.0453 44.8364 10.8533 45.0978 10.72C45.3644 10.5867 45.6738 10.52 46.0258 10.52C46.5324 10.52 46.9404 10.656 47.2498 10.928C47.5591 11.2 47.7218 11.5707 47.7378 12.04H47.0178C47.0018 11.7573 46.9058 11.5413 46.7298 11.392C46.5591 11.2373 46.3244 11.16 46.0258 11.16C45.7111 11.16 45.4604 11.2507 45.2738 11.432C45.0871 11.608 44.9938 11.8613 44.9938 12.192V13.4C44.9938 13.7307 45.0871 13.9867 45.2738 14.168C45.4604 14.3493 45.7111 14.44 46.0258 14.44C46.3244 14.44 46.5591 14.3627 46.7298 14.208C46.9058 14.0533 47.0018 13.8373 47.0178 13.56H47.7378C47.7218 14.0293 47.5591 14.4 47.2498 14.672C46.9404 14.944 46.5324 15.08 46.0258 15.08ZM50.7826 15.08C50.276 15.08 49.8706 14.9307 49.5666 14.632C49.2626 14.328 49.1106 13.9173 49.1106 13.4V10.6H49.8306V13.4C49.8306 13.7307 49.916 13.9893 50.0866 14.176C50.2573 14.3573 50.4893 14.448 50.7826 14.448C51.0813 14.448 51.316 14.3573 51.4866 14.176C51.6626 13.9893 51.7506 13.7307 51.7506 13.4V10.6H52.4706V13.4C52.4706 13.9173 52.316 14.328 52.0066 14.632C51.6973 14.9307 51.2893 15.08 50.7826 15.08ZM53.7155 15V10.6H54.3475V11.128H54.4915L54.3795 11.32C54.3795 11.0747 54.4435 10.88 54.5715 10.736C54.7048 10.592 54.8835 10.52 55.1075 10.52C55.3528 10.52 55.5422 10.6107 55.6755 10.792C55.8088 10.9733 55.8755 11.2293 55.8755 11.56L55.6595 11.128H55.9955L55.8435 11.32C55.8435 11.0747 55.9102 10.88 56.0435 10.736C56.1822 10.592 56.3635 10.52 56.5875 10.52C56.8648 10.52 57.0782 10.624 57.2275 10.832C57.3822 11.04 57.4595 11.3147 57.4595 11.656V15H56.7955V11.648C56.7955 11.4667 56.7555 11.3253 56.6755 11.224C56.6008 11.1227 56.4888 11.072 56.3395 11.072C56.1955 11.072 56.0808 11.1227 55.9955 11.224C55.9155 11.32 55.8755 11.4587 55.8755 11.64V15H55.2995V11.648C55.2995 11.4613 55.2568 11.32 55.1715 11.224C55.0915 11.1227 54.9768 11.072 54.8275 11.072C54.6782 11.072 54.5662 11.1227 54.4915 11.224C54.4168 11.32 54.3795 11.4587 54.3795 11.64V15H53.7155ZM60.3844 15.08C60.0377 15.08 59.7337 15.0107 59.4724 14.872C59.2164 14.7333 59.0164 14.5387 58.8724 14.288C58.7337 14.032 58.6644 13.736 58.6644 13.4V12.2C58.6644 11.8587 58.7337 11.5627 58.8724 11.312C59.0164 11.0613 59.2164 10.8667 59.4724 10.728C59.7337 10.5893 60.0377 10.52 60.3844 10.52C60.731 10.52 61.0324 10.5893 61.2884 10.728C61.5497 10.8667 61.7497 11.0613 61.8884 11.312C62.0324 11.5627 62.1044 11.8587 62.1044 12.2V12.976H59.3684V13.4C59.3684 13.7467 59.4564 14.0133 59.6324 14.2C59.8084 14.3813 60.059 14.472 60.3844 14.472C60.6617 14.472 60.8857 14.424 61.0564 14.328C61.227 14.2267 61.331 14.0773 61.3684 13.88H62.0884C62.0404 14.248 61.859 14.5413 61.5444 14.76C61.235 14.9733 60.8484 15.08 60.3844 15.08ZM61.4004 12.496V12.2C61.4004 11.8533 61.3124 11.5867 61.1364 11.4C60.9657 11.2133 60.715 11.12 60.3844 11.12C60.059 11.12 59.8084 11.2133 59.6324 11.4C59.4564 11.5867 59.3684 11.8533 59.3684 12.2V12.432H61.4564L61.4004 12.496ZM63.5173 15V10.6H64.2373V11.44H64.3893L64.2373 11.608C64.2373 11.2613 64.3413 10.9947 64.5493 10.808C64.7573 10.616 65.0453 10.52 65.4133 10.52C65.8559 10.52 66.2079 10.656 66.4693 10.928C66.7306 11.2 66.8613 11.5707 66.8613 12.04V15H66.1413V12.12C66.1413 11.8053 66.0559 11.5653 65.8853 11.4C65.7199 11.2293 65.4933 11.144 65.2053 11.144C64.9066 11.144 64.6693 11.2347 64.4933 11.416C64.3226 11.5973 64.2373 11.8587 64.2373 12.2V15H63.5173ZM70.4581 15C70.0795 15 69.7835 14.8987 69.5701 14.696C69.3621 14.4933 69.2581 14.208 69.2581 13.84V11.256H68.0181V10.6H69.2581V9.36H69.9781V10.6H71.7381V11.256H69.9781V13.84C69.9781 14.176 70.1381 14.344 70.4581 14.344H71.6581V15H70.4581ZM74.391 15.08C73.927 15.08 73.5617 14.9627 73.295 14.728C73.0283 14.488 72.895 14.1653 72.895 13.76C72.895 13.3493 73.0283 13.0267 73.295 12.792C73.5617 12.5573 73.9217 12.44 74.375 12.44H75.735V12C75.735 11.728 75.6523 11.52 75.487 11.376C75.327 11.2267 75.0977 11.152 74.799 11.152C74.5377 11.152 74.319 11.208 74.143 11.32C73.967 11.4267 73.8657 11.5733 73.839 11.76H73.119C73.167 11.3813 73.3457 11.08 73.655 10.856C73.9643 10.632 74.351 10.52 74.815 10.52C75.3217 10.52 75.7217 10.6507 76.015 10.912C76.3083 11.1733 76.455 11.528 76.455 11.976V15H75.751V14.16H75.631L75.751 14.04C75.751 14.36 75.6257 14.6133 75.375 14.8C75.1297 14.9867 74.8017 15.08 74.391 15.08ZM74.567 14.512C74.9083 14.512 75.1883 14.4267 75.407 14.256C75.6257 14.0853 75.735 13.8667 75.735 13.6V12.976H74.391C74.151 12.976 73.9617 13.0427 73.823 13.176C73.6843 13.3093 73.615 13.4907 73.615 13.72C73.615 13.9653 73.6977 14.16 73.863 14.304C74.0337 14.4427 74.2683 14.512 74.567 14.512ZM80.0519 15C79.6732 15 79.3772 14.8987 79.1639 14.696C78.9559 14.4933 78.8519 14.208 78.8519 13.84V11.256H77.6119V10.6H78.8519V9.36H79.5719V10.6H81.3319V11.256H79.5719V13.84C79.5719 14.176 79.7319 14.344 80.0519 14.344H81.2519V15H80.0519ZM82.6488 15V14.344H84.2088V11.256H82.8488V10.6H84.9288V14.344H86.4088V15H82.6488ZM84.4888 9.808C84.3128 9.808 84.1741 9.76267 84.0728 9.672C83.9714 9.58133 83.9208 9.45867 83.9208 9.304C83.9208 9.144 83.9714 9.01867 84.0728 8.928C84.1741 8.832 84.3128 8.784 84.4888 8.784C84.6648 8.784 84.8034 8.832 84.9048 8.928C85.0061 9.01867 85.0568 9.144 85.0568 9.304C85.0568 9.45867 85.0061 9.58133 84.9048 9.672C84.8034 9.76267 84.6648 9.808 84.4888 9.808ZM89.1656 15.064C88.8136 15.064 88.5096 14.9973 88.2536 14.864C87.9976 14.7307 87.7976 14.5387 87.6536 14.288C87.515 14.032 87.4456 13.7307 87.4456 13.384V12.216C87.4456 11.864 87.515 11.5627 87.6536 11.312C87.7976 11.0613 87.9976 10.8693 88.2536 10.736C88.5096 10.6027 88.8136 10.536 89.1656 10.536C89.5176 10.536 89.8216 10.6027 90.0776 10.736C90.3336 10.8693 90.531 11.0613 90.6696 11.312C90.8136 11.5627 90.8856 11.8613 90.8856 12.208V13.384C90.8856 13.7307 90.8136 14.032 90.6696 14.288C90.531 14.5387 90.3336 14.7307 90.0776 14.864C89.8216 14.9973 89.5176 15.064 89.1656 15.064ZM89.1656 14.424C89.4803 14.424 89.7256 14.336 89.9016 14.16C90.0776 13.984 90.1656 13.7253 90.1656 13.384V12.216C90.1656 11.8747 90.0776 11.616 89.9016 11.44C89.7256 11.264 89.4803 11.176 89.1656 11.176C88.8563 11.176 88.611 11.264 88.4296 11.44C88.2536 11.616 88.1656 11.8747 88.1656 12.216V13.384C88.1656 13.7253 88.2536 13.984 88.4296 14.16C88.611 14.336 88.8563 14.424 89.1656 14.424ZM92.2985 15V10.6H93.0185V11.44H93.1705L93.0185 11.608C93.0185 11.2613 93.1225 10.9947 93.3305 10.808C93.5385 10.616 93.8265 10.52 94.1945 10.52C94.6372 10.52 94.9892 10.656 95.2505 10.928C95.5118 11.2 95.6425 11.5707 95.6425 12.04V15H94.9225V12.12C94.9225 11.8053 94.8372 11.5653 94.6665 11.4C94.5012 11.2293 94.2745 11.144 93.9865 11.144C93.6878 11.144 93.4505 11.2347 93.2745 11.416C93.1038 11.5973 93.0185 11.8587 93.0185 12.2V15H92.2985Z" fill="black"/>
<path d="M12.8462 19.2344H19.3173C18.9808 19.8438 18.3654 20.25 17.6538 20.25H12.8462C10.7212 20.25 9 18.432 9 16.1875V8.0625C9 7.31094 9.38462 6.66094 9.96154 6.30547V16.1875C9.96154 17.8633 11.2596 19.2344 12.8462 19.2344ZM21.5 9.49859V16.1875C21.5 17.3077 20.6375 18.2188 19.5769 18.2188H12.8462C11.7856 18.2188 10.9231 17.3077 10.9231 16.1875V6.03125C10.9231 4.91102 11.7856 4 12.8462 4H16.2942C16.674 4 17.0452 4.1625 17.3144 4.44586L21.0779 8.42102C21.35 8.70844 21.5 9.09133 21.5 9.49859ZM16.6923 8.57031C16.6923 8.85063 16.9087 9.07813 17.1731 9.07813H20.3394L16.6923 5.22586V8.57031ZM20.5385 16.1875V10.0938H17.1731C16.3779 10.0938 15.7308 9.41023 15.7308 8.57031V5.01563H12.8462C12.3154 5.01563 11.8846 5.47164 11.8846 6.03125V16.1875C11.8846 16.7471 12.3154 17.2031 12.8462 17.2031H19.5769C20.1077 17.2031 20.5385 16.7471 20.5385 16.1875Z" fill="white"/>
</g>
<defs>
<clipPath id="clip0_2_4">
<rect width="100" height="25" fill="white"/>
</clipPath>
</defs>
</svg>